<svg width="20" height="12" viewBox="0 0 20 12" fill="none" xmlns="http://www.w3.org/2000/svg">
<path d="M19.9687 0.885028C20.1387 1.34456 19.6164 2.41681 18.4018 4.10176C18.2317 4.33153 18.0131 4.63789 17.7459 5.02083C17.1872 5.73566 16.8713 6.20796 16.7985 6.43773C16.677 6.74408 16.7256 7.03767 16.9442 7.3185C17.0657 7.47168 17.3451 7.77803 17.7823 8.23757H17.8188V8.27586C18.8148 9.22046 19.4828 10.0246 19.8229 10.6884L19.8958 10.8416L19.9687 11.1288V11.4926L19.7136 11.7798L19.0941 11.9138L16.4341 11.9904C16.264 12.016 16.0636 11.9904 15.8328 11.9138C15.602 11.8372 15.4259 11.7607 15.3045 11.6841L15.0858 11.5309C14.8672 11.3777 14.6243 11.1479 14.357 10.8416C14.0898 10.5352 13.853 10.2544 13.6465 9.99911C13.44 9.74382 13.2274 9.5332 13.0088 9.36725C12.7902 9.20131 12.5958 9.14387 12.4258 9.19493C12.4015 9.19493 12.3711 9.20769 12.3347 9.23322C12.2982 9.25875 12.2375 9.3162 12.1525 9.40555C12.0674 9.4949 11.9946 9.6034 11.9338 9.73105C11.8731 9.8587 11.8184 10.0438 11.7699 10.2863C11.7213 10.5289 11.697 10.8161 11.697 11.1479C11.697 11.2501 11.6848 11.3458 11.6605 11.4352C11.6362 11.5245 11.612 11.5947 11.5877 11.6458L11.5512 11.6841C11.4055 11.8372 11.2111 11.9138 10.9682 11.9138H9.80214C9.29199 11.9649 8.77577 11.9138 8.25348 11.7607C7.73118 11.6075 7.27569 11.4096 6.88701 11.1671C6.49832 10.9246 6.14608 10.682 5.83027 10.4395C5.51446 10.197 5.27154 9.98635 5.10149 9.80764L4.84641 9.53958C4.77353 9.48852 4.67636 9.3864 4.5549 9.23322C4.43343 9.08005 4.18443 8.74816 3.8079 8.23757C3.43136 7.72697 3.06089 7.17809 2.6965 6.5909C2.33211 6.00372 1.90698 5.23145 1.42113 4.27409C0.935273 3.31673 0.485856 2.32745 0.0728784 1.30627C0.0242928 1.17862 0 1.0765 0 0.999911C0 0.923322 0.0121464 0.859498 0.0364392 0.808439L0.0728784 0.770144C0.17005 0.616967 0.364392 0.540378 0.655905 0.540378H3.5346C3.60748 0.540378 3.68036 0.559525 3.75324 0.597819L3.93543 0.693555L3.97187 0.73185C4.09334 0.808439 4.17836 0.923322 4.22695 1.0765C4.3727 1.43392 4.53668 1.81048 4.71888 2.20619C4.90107 2.6019 5.04075 2.90187 5.13793 3.10611L5.28368 3.41246C5.50232 3.84647 5.70273 4.22303 5.88493 4.54215C6.06713 4.86127 6.2311 5.11019 6.37686 5.28889C6.52262 5.4676 6.66837 5.60801 6.81413 5.71013C6.95989 5.81225 7.08135 5.86331 7.17852 5.86331C7.27569 5.86331 7.37286 5.85054 7.47003 5.82502L7.50647 5.76757L7.63401 5.51866L7.77977 5.02083L7.87087 4.14006V2.76146C7.84657 2.48063 7.81013 2.21895 7.76155 1.97642C7.71296 1.73389 7.66438 1.56156 7.61579 1.45944L7.57935 1.34456C7.4093 1.08927 7.10564 0.923322 6.66837 0.846733C6.59549 0.846733 6.61979 0.75738 6.74125 0.578672C6.86271 0.451024 6.99632 0.348905 7.14208 0.272316C7.50647 0.0680791 8.33243 -0.0212747 9.61995 0.00425494C10.1787 0.00425494 10.6524 0.0553142 11.0411 0.157433C11.1625 0.182962 11.2719 0.227639 11.369 0.291464C11.4662 0.355288 11.5391 0.444641 11.5877 0.559525C11.6362 0.674408 11.6727 0.789292 11.697 0.904175C11.7213 1.01906 11.7334 1.185 11.7334 1.402V1.99557C11.7091 2.1998 11.697 2.4551 11.697 2.76146V3.68052C11.697 3.75711 11.6909 3.91029 11.6788 4.14006C11.6666 4.36983 11.6605 4.54853 11.6605 4.67618C11.6605 4.80383 11.6727 4.95062 11.697 5.11657C11.7213 5.28251 11.7638 5.42292 11.8245 5.53781C11.8853 5.65269 11.9642 5.73566 12.0614 5.78672C12.11 5.81225 12.1646 5.8314 12.2253 5.84416C12.2861 5.85693 12.3772 5.81863 12.4986 5.72928C12.6201 5.63993 12.7537 5.51228 12.8995 5.34633C13.0452 5.18039 13.2274 4.93148 13.4461 4.59959C13.6647 4.26771 13.8955 3.88476 14.1384 3.45076C14.5514 2.68487 14.9279 1.85515 15.268 0.961617C15.2923 0.910558 15.3227 0.853116 15.3591 0.789292C15.3956 0.725468 15.4381 0.680791 15.4867 0.655261H15.5231L15.5595 0.616967L15.7053 0.578672H15.9239L18.9119 0.540378C19.1792 0.514848 19.4039 0.527613 19.5861 0.578672C19.7683 0.629731 19.8715 0.693555 19.8958 0.770144L19.9687 0.885028Z" fill="white"/>
</svg>