<svg width="20" height="14" viewBox="0 0 20 14" fill="none" xmlns="http://www.w3.org/2000/svg">
<path d="M19.5834 2.4224C19.4701 2.01843 19.2495 1.65269 18.945 1.36407C18.6319 1.06657 18.2482 0.853764 17.83 0.745734C16.265 0.333234 9.99503 0.333234 9.99503 0.333234C7.38113 0.303495 4.76788 0.434296 2.17003 0.724901C1.75185 0.840912 1.36883 1.05847 1.05503 1.35823C0.746693 1.6549 0.523359 2.02073 0.406693 2.42157C0.126437 3.93135 -0.00973061 5.46435 2.60381e-05 6.9999C-0.00997396 8.53407 0.125859 10.0666 0.406693 11.5782C0.520859 11.9774 0.743359 12.3416 1.05253 12.6357C1.36169 12.9299 1.74669 13.1424 2.17003 13.2549C3.75586 13.6666 9.99503 13.6666 9.99503 13.6666C12.6122 13.6963 15.2288 13.5655 17.83 13.2749C18.2482 13.1669 18.6319 12.9541 18.945 12.6566C19.2534 12.3624 19.4725 11.9966 19.5825 11.5982C19.8701 10.089 20.0099 8.5554 20 7.01907C20.0217 5.47624 19.882 3.93537 19.5834 2.42157V2.4224ZM8.00169 9.85324V4.1474L13.2184 7.00074L8.00169 9.85324Z" fill="white"/>
</svg>